# Blender v2.93.1 OBJ File: 'Random Terrain.blend'
# www.blender.org
mtllib Random Terrain.mtl
o Cube
v -1.294183 -1.766238 0.277135
v 0.210509 -0.001076 1.758919
v -2.044953 -0.263075 0.407327
v -0.668692 -0.399057 -2.182212
v -0.539460 -0.135342 1.363241
v -0.895062 -1.549324 0.331357
v -1.934272 -1.077941 -0.912520
v -2.627795 -0.504498 1.107510
v 0.147573 -1.103507 1.439497
v -1.518291 -0.965214 2.007262
v -1.045480 -1.147278 0.736808
v -0.889881 -1.420112 -2.102609
v 1.290128 -1.308954 -1.812880
v -2.390204 -1.073495 -0.502744
v -0.622651 -0.703221 -2.531221
v -0.438806 -1.288702 -1.761946
v -1.273485 -0.549494 2.116225
v -0.902428 -1.477599 -1.123585
v -1.445149 -0.435041 -0.936601
v -0.688885 -0.232387 0.866206
v 0.696431 -1.226718 -0.365923
v 0.012996 -1.150227 -1.273940
v -2.649554 -1.216175 1.441462
v -1.218595 -0.318711 -0.540266
v 0.986767 -1.251957 -0.818150
v 0.374397 -0.509453 0.540186
v -1.337305 -1.248244 -1.353528
v 0.580180 -0.463513 0.918497
v 0.089769 -0.623563 -0.905730
v -1.871962 -1.719594 -0.198482
v -1.085618 -0.733527 -2.154688
v -0.180438 -1.137705 1.216766
v -2.207519 -0.445948 1.482771
v -2.427550 -1.148241 0.836226
v -1.682842 -0.150678 0.751543
v 1.344956 -0.878595 -2.052413
v -0.518637 -0.412779 -1.373551
v -1.765851 -0.514570 -0.261057
v -1.576373 -1.030254 0.826267
v -1.209849 -0.991892 -1.752724
v -0.055927 -0.780125 -2.748980
v -1.786126 -0.387674 1.861181
v 0.904470 -1.297193 -2.204040
v 0.055073 -0.695186 -2.420104
v -0.946380 -0.493341 -0.877057
v -0.065895 -0.389195 -1.541544
v -1.524069 -1.532572 -0.618954
v 1.772521 -1.005986 -1.597081
v 0.419171 -0.144954 1.290099
v 1.295064 -1.161907 -0.339645
v 0.885789 -1.374839 -2.172512
v 0.185343 -1.063936 -2.989732
v -1.845540 -1.548509 0.212421
v -1.902892 0.022828 1.067147
v 0.491138 -1.327558 -2.665773
v 1.115668 -0.961195 -1.808937
v -0.319242 -1.243120 -2.649522
v -2.189135 -0.850465 1.797116
v -2.417386 -1.335490 0.076505
v -0.650337 -1.639448 -0.254410
v -1.128410 -0.951289 2.118071
v 0.344910 -1.183056 1.126012
v -1.250861 -1.822590 -0.342113
v -1.965346 -0.666213 -0.728877
v -1.045640 -0.473223 -1.425935
v -0.206124 -0.362930 -2.226135
v -1.356840 -0.474605 -1.757239
v 0.713508 -1.037325 -2.190170
v -1.742039 -2.044702 0.332329
v -0.754721 -0.340228 -0.168409
v 0.724452 -1.200081 0.970112
v 0.610712 -1.268392 0.236040
v -2.427450 -0.723396 0.361496
v 1.673584 -1.007957 -0.622116
v -1.198839 -0.156859 -0.056920
v -1.686327 -0.566010 -1.333107
v 0.849212 -0.741178 -0.180817
v -1.332592 -0.213583 1.185089
v -0.698277 -0.188527 0.362629
v 0.475979 -0.762762 -1.808213
v 0.207452 -1.233260 -0.519532
v -0.425181 -1.165547 0.707551
v -0.816930 -1.122408 1.835925
v 1.541140 -0.738381 -0.494926
v -0.748536 -1.136920 1.240787
v 0.990957 -0.567494 1.163880
v 1.687502 -0.802517 0.475576
v -1.144665 -1.068788 1.457260
v -1.704707 -1.045692 1.331215
v -2.142967 -0.316224 -0.074892
v -1.225837 -0.027251 1.668043
v -0.609446 -0.773118 2.020180
v 0.072255 -0.996621 1.776646
v 1.563011 -0.717639 -0.060475
v 1.606329 -0.890532 -1.223996
v 1.937241 -0.848953 1.469057
v -0.813971 0.049579 1.886670
v 1.024340 -1.183430 -2.449697
v -0.390037 -1.128349 1.818867
v -0.137555 -0.601766 1.731481
v -0.480535 -0.475697 1.826287
v 0.242210 -0.552431 1.774962
v 0.848220 -0.809080 1.652833
v 1.492763 -0.755705 1.299684
v -0.876490 -0.403267 1.986489
v 0.737677 -1.218740 1.486451
v -0.252803 -0.105815 1.827377
v 1.452648 -0.860742 1.274071
v 1.766847 -0.918040 0.277639
v -0.761236 -0.155732 1.615910
v 2.126966 -0.877307 0.442329
v 0.137492 -1.182450 0.678983
v 1.907954 -0.854295 0.893973
v 2.041648 -0.935349 0.720162
v -0.510850 -1.596653 -0.790861
v 0.913473 -0.128330 1.623559
v 1.320520 -0.586548 1.533063
v 1.779112 -0.935395 0.981879
v 0.475568 -1.069186 1.661831
v 2.129872 -0.733199 0.505244
v -0.132787 -0.523176 -0.070323
v -0.067688 -0.185135 0.916554
v 0.603673 -0.722774 -0.829192
v 1.192946 -0.699458 0.629868
v -0.042106 -1.227728 -0.049456
v 1.313406 -1.183131 0.627217
v 0.592038 -1.242461 -1.531255
v -1.251184 -0.191597 0.573629
v 2.066958 -0.841456 -0.422564
v 0.999839 -0.800730 -1.121651
v 1.523668 -1.190230 -1.327164
v 0.527595 0.135873 1.972011
v -0.081748 -0.516748 0.458271
v 1.046590 -0.714223 -0.410286
v -0.484067 -0.524534 -0.661143
v 2.318526 -0.954918 1.154402
v 2.058632 -0.647280 -0.022089
v 0.834389 -0.718790 0.094030
v 2.177809 -0.834945 -1.274291
v 1.091587 -1.319286 -1.417191
v 1.108154 -1.212371 1.276410
vt 0.000000 0.000000
vt 0.000000 0.000000
vt 0.000000 0.000000
vt 0.000000 0.000000
vt 0.000000 0.000000
vt 0.000000 0.000000
vt 0.000000 0.000000
vt 0.000000 0.000000
vt 0.000000 0.000000
vt 0.000000 0.000000
vt 0.000000 0.000000
vt 0.000000 0.000000
vt 0.000000 0.000000
vt 0.000000 0.000000
vt 0.000000 0.000000
vt 0.000000 0.000000
vt 0.000000 0.000000
vt 0.000000 0.000000
vt 0.000000 0.000000
vt 0.000000 0.000000
vt 0.000000 0.000000
vt 0.000000 0.000000
vt 0.000000 0.000000
vt 0.000000 0.000000
vt 0.000000 0.000000
vt 0.000000 0.000000
vt 0.000000 0.000000
vt 0.000000 0.000000
vt 0.000000 0.000000
vt 0.000000 0.000000
vt 0.000000 0.000000
vt 0.000000 0.000000
vt 0.000000 0.000000
vt 0.000000 0.000000
vt 0.000000 0.000000
vt 0.000000 0.000000
vt 0.000000 0.000000
vt 0.000000 0.000000
vt 0.000000 0.000000
vt 0.000000 0.000000
vt 0.000000 0.000000
vt 0.000000 0.000000
vt 0.000000 0.000000
vt 0.000000 0.000000
vt 0.000000 0.000000
vt 0.000000 0.000000
vt 0.000000 0.000000
vt 0.000000 0.000000
vt 0.000000 0.000000
vt 0.000000 0.000000
vt 0.000000 0.000000
vt 0.000000 0.000000
vt 0.000000 0.000000
vt 0.000000 0.000000
vt 0.000000 0.000000
vt 0.000000 0.000000
vt 0.000000 0.000000
vt 0.000000 0.000000
vt 0.000000 0.000000
vt 0.000000 0.000000
vt 0.000000 0.000000
vt 0.000000 0.000000
vt 0.000000 0.000000
vt 0.000000 0.000000
vt 0.000000 0.000000
vt 0.000000 0.000000
vt 0.000000 0.000000
vt 0.000000 0.000000
vt 0.000000 0.000000
vt 0.000000 0.000000
vt 0.000000 0.000000
vt 0.000000 0.000000
vt 0.000000 0.000000
vt 0.000000 0.000000
vt 0.000000 0.000000
vt 0.000000 0.000000
vt 0.000000 0.000000
vt 0.000000 0.000000
vt 0.000000 0.000000
vt 0.000000 0.000000
vt 0.000000 0.000000
vt 0.000000 0.000000
vt 0.000000 0.000000
vt 0.000000 0.000000
vt 0.000000 0.000000
vt 0.000000 0.000000
vt 0.000000 0.000000
vt 0.000000 0.000000
vt 0.000000 0.000000
vt 0.000000 0.000000
vt 0.000000 0.000000
vt 0.000000 0.000000
vt 0.000000 0.000000
vt 0.000000 0.000000
vt 0.000000 0.000000
vt 0.000000 0.000000
vt 0.000000 0.000000
vt 0.000000 0.000000
vt 0.000000 0.000000
vt 0.000000 0.000000
vt 0.000000 0.000000
vt 0.000000 0.000000
vt 0.000000 0.000000
vt 0.000000 0.000000
vt 0.000000 0.000000
vt 0.000000 0.000000
vt 0.000000 0.000000
vt 0.000000 0.000000
vt 0.000000 0.000000
vt 0.000000 0.000000
vt 0.000000 0.000000
vt 0.000000 0.000000
vt 0.000000 0.000000
vt 0.000000 0.000000
vt 0.000000 0.000000
vt 0.000000 0.000000
vt 0.000000 0.000000
vt 0.000000 0.000000
vt 0.000000 0.000000
vt 0.000000 0.000000
vt 0.000000 0.000000
vt 0.000000 0.000000
vt 0.000000 0.000000
vt 0.000000 0.000000
vt 0.000000 0.000000
vt 0.000000 0.000000
vt 0.000000 0.000000
vt 0.000000 0.000000
vt 0.000000 0.000000
vt 0.000000 0.000000
vt 0.000000 0.000000
vt 0.000000 0.000000
vt 0.000000 0.000000
vt 0.000000 0.000000
vt 0.000000 0.000000
vt 0.000000 0.000000
vt 0.000000 0.000000
vt 0.000000 0.000000
vt 0.000000 0.000000
vt 0.686000 0.542731
vt 0.625000 0.547865
vt 0.625000 0.500000
vt 0.722322 0.594909
vt 0.673661 0.607872
vt 0.677906 0.585461
vt 0.713832 0.614626
vt 0.669416 0.630282
vt 0.696235 0.655494
vt 0.725055 0.638309
vt 0.749771 0.601958
vt 0.625000 0.595731
vt 0.837638 0.665686
vt 0.780637 0.671547
vt 0.800276 0.645810
vt 0.625000 0.620834
vt 0.722040 0.652960
vt 0.761695 0.584420
vn 0.1117 0.9747 -0.1934
vn -0.1177 0.9923 0.0387
vn 0.3151 -0.9477 -0.0516
vn 0.2099 0.9504 -0.2296
vn 0.0285 0.9963 -0.0810
vn 0.1016 -0.9875 0.1204
vn -0.2491 0.9641 0.0925
vn -0.5221 -0.7423 -0.4201
vn -0.7288 0.5014 -0.4663
vn -0.1261 0.9854 0.1144
vn 0.1352 0.9874 -0.0826
vn 0.6008 0.7267 -0.3330
vn 0.5251 0.7642 -0.3746
vn -0.6208 -0.2958 -0.7260
vn -0.1206 0.7404 -0.6612
vn 0.0923 0.8053 -0.5856
vn 0.1087 0.9719 -0.2086
vn 0.1098 0.9629 -0.2466
vn 0.7431 0.0412 -0.6679
vn -0.0310 -0.9521 -0.3042
vn 0.3836 -0.8384 -0.3872
vn -0.6888 0.7250 -0.0004
vn 0.2918 0.9412 -0.1706
vn 0.3086 0.9440 -0.1166
vn -0.0059 0.9879 0.1552
vn 0.3376 0.7819 -0.5241
vn 0.1284 0.9627 -0.2383
vn 0.1098 -0.9925 -0.0531
vn 0.3325 -0.9431 -0.0037
vn -0.1777 -0.9767 0.1202
vn 0.2752 0.9220 0.2725
vn 0.0363 0.8153 -0.5780
vn 0.1984 0.9780 -0.0647
vn -0.2503 -0.8798 -0.4042
vn 0.2373 0.0190 0.9712
vn -0.5912 0.1667 -0.7891
vn 0.3760 0.8730 -0.3106
vn -0.7785 -0.1560 0.6079
vn 0.1986 0.9779 -0.0658
vn 0.1504 0.9221 -0.3566
vn -0.1446 0.7528 -0.6422
vn -0.5964 0.7401 -0.3106
vn 0.4654 -0.8759 0.1275
vn -0.0708 0.9955 0.0623
vn -0.1345 0.9891 0.0606
vn 0.5056 -0.8337 -0.2221
vn 0.3893 0.9146 -0.1096
vn -0.2371 0.9625 -0.1320
vn 0.6035 0.6987 -0.3842
vn -0.4202 0.9064 -0.0438
vn 0.5015 -0.8347 -0.2275
vn 0.2870 -0.9579 -0.0105
vn -0.3583 0.0032 -0.9336
vn -0.4156 0.9091 -0.0292
vn 0.6369 -0.4353 -0.6363
vn 0.4812 -0.8643 -0.1463
vn -0.6049 -0.2303 -0.7623
vn 0.4462 0.8348 -0.3226
vn 0.4164 -0.4623 0.7829
vn -0.1833 -0.9812 -0.0607
vn 0.7425 0.6577 -0.1269
vn 0.7417 -0.6649 -0.0884
vn -0.4414 -0.8954 -0.0582
vn 0.6076 0.7819 0.1394
vn 0.2635 0.9415 -0.2103
vn 0.3095 -0.9508 -0.0167
vn -0.1863 -0.9801 -0.0680
vn 0.6957 0.5367 -0.4774
vn 0.4074 -0.9119 0.0489
vn -0.3458 0.9044 0.2501
vn -0.5255 0.6059 -0.5973
vn 0.1529 0.9069 -0.3926
vn -0.1194 0.9912 0.0579
vn -0.2417 -0.7253 0.6446
vn -0.1208 0.9319 -0.3422
vn 0.1276 -0.9911 0.0381
vn -0.9570 -0.2161 -0.1936
vn -0.0749 0.9967 0.0308
vn 0.2639 -0.9585 0.1074
vn -0.8679 -0.2504 -0.4291
vn -0.8534 -0.2768 -0.4417
vn -0.4075 -0.9132 0.0018
vn 0.0532 0.9240 -0.3787
vn -0.9990 0.0045 -0.0449
vn 0.4726 0.8505 -0.2311
vn 0.2642 0.8535 -0.4492
vn -0.6447 -0.2007 -0.7376
vn -0.7705 0.6315 0.0870
vn 0.5666 0.4531 -0.6882
vn 0.3299 0.7826 -0.5280
vn -0.8646 -0.2495 -0.4362
vn -0.4829 0.5456 -0.6850
vn -0.8524 -0.2719 -0.4467
vn 0.8847 -0.3076 -0.3502
vn -0.0351 0.9983 0.0455
vn 0.1913 -0.8838 -0.4269
vn 0.4992 0.6670 -0.5531
vn 0.0059 0.9879 0.1547
vn 0.1350 -0.9896 -0.0504
vn -0.0994 -0.9913 0.0861
vn 0.3981 0.9135 0.0834
vn 0.9680 0.2330 -0.0928
vn -0.0062 -0.9956 0.0936
vn -0.0277 -0.9989 0.0368
vn 0.1151 0.9022 -0.4157
vn 0.3654 -0.9292 0.0550
vn -0.2479 -0.8520 -0.4611
vn 0.1317 -0.1549 0.9791
vn 0.2679 -0.9593 0.0895
vn -0.0240 -0.9994 -0.0242
vn 0.3404 -0.5889 0.7330
vn -0.5555 -0.0077 0.8315
vn 0.2016 0.9794 -0.0080
vn -0.0035 -0.9986 0.0535
vn -0.5824 0.7841 -0.2144
vn -0.1010 -0.9734 0.2055
vn -0.0920 -0.9549 0.2822
vn 0.0475 -0.9214 -0.3856
vn 0.2083 0.9269 -0.3122
vn 0.0035 -0.5971 0.8021
vn -0.0032 -0.9993 -0.0360
vn -0.5033 -0.6641 -0.5528
vn -0.0141 0.8103 -0.5859
vn 0.1720 -0.9840 -0.0473
vn 0.3120 0.9043 -0.2915
vn -0.8913 0.4055 -0.2027
vn 0.4398 -0.4110 0.7986
vn -0.0546 -0.9984 -0.0173
vn 0.2938 0.9027 -0.3143
vn 0.4822 -0.4675 0.7409
vn -0.0273 -0.9992 -0.0276
vn -0.5083 0.7322 0.4533
vn -0.0578 0.9830 -0.1746
vn -0.7049 -0.3420 -0.6213
vn -0.7234 0.3113 0.6163
vn 0.2743 0.1034 0.9561
vn 0.4555 -0.8314 0.3182
vn -0.5075 0.7323 0.4541
vn -0.0914 -0.9550 0.2823
vn -0.6277 0.4597 0.6282
vn -0.3370 -0.7966 -0.5019
vn -0.1263 -0.9903 0.0572
vn 0.2100 -0.8046 0.5555
vn -0.6419 0.2714 -0.7171
vn 0.0007 0.9430 -0.3328
vn -0.0240 -0.9997 -0.0000
vn 0.7018 -0.6863 0.1910
vn 0.2404 0.9479 -0.2088
vn 0.2510 0.9677 -0.0218
vn 0.3876 0.9044 -0.1785
vn 0.0502 0.9978 0.0426
vn -0.9247 -0.1382 -0.3547
vn 0.2456 0.9672 -0.0655
vn -0.1650 0.9645 0.2063
vn -0.0265 -0.9973 0.0685
vn -0.9999 -0.0115 -0.0105
vn 0.1151 0.9920 0.0510
vn 0.9976 0.0099 -0.0688
vn -0.6969 0.6157 -0.3678
vn 0.0284 -0.4795 0.8771
vn -0.2285 -0.9696 -0.0877
vn -0.0460 -0.9748 0.2184
vn 0.2655 0.8782 -0.3979
vn 0.4627 -0.8794 0.1124
vn 0.4105 0.8891 -0.2026
vn 0.2918 -0.9565 -0.0004
vn 0.0084 0.6508 0.7592
vn -0.3916 0.9111 -0.1284
vn -0.3347 -0.6426 0.6893
vn -0.3325 -0.9028 0.2729
vn -0.0607 0.9829 -0.1737
vn -0.3528 -0.7111 -0.6082
vn -0.9092 0.1105 -0.4015
vn 0.5347 -0.8374 0.1136
vn 0.4881 -0.8723 -0.0284
vn 0.3716 -0.9275 0.0413
vn -0.1695 -0.9822 0.0807
vn 0.1157 -0.7834 0.6107
vn 0.4074 0.8556 -0.3195
vn -0.0265 -0.9974 0.0673
vn 0.3039 0.9350 -0.1828
vn 0.4605 0.8850 0.0685
vn -0.0798 -0.9962 0.0357
vn -0.4394 0.0234 0.8980
vn -0.5341 0.8454 0.0022
vn 0.2071 0.9767 -0.0560
vn -0.3782 -0.8457 0.3765
vn -0.1202 -0.9886 0.0911
vn 0.5962 0.6283 -0.4998
vn -0.4430 0.8554 -0.2683
vn 0.1379 0.0367 0.9898
vn -0.3498 -0.9208 0.1723
vn -0.0717 -0.9879 0.1374
vn -0.2691 -0.0928 0.9586
vn -0.3918 0.7388 0.5484
vn 0.0335 -0.9974 -0.0643
vn 0.2302 0.9731 -0.0009
vn -0.2604 -0.7837 -0.5640
vn -0.2189 -0.9600 0.1746
vn -0.0007 -0.9999 0.0153
vn -0.0147 -0.9844 0.1754
vn 0.3706 0.7150 0.5928
vn 0.4557 -0.8805 0.1307
vn 0.2818 -0.9528 0.1129
vn 0.0624 0.9950 -0.0777
vn 0.2492 -0.9361 0.2482
vn -0.0130 -0.9997 0.0229
vn 0.5418 -0.8372 0.0741
vn 0.2490 -0.6399 0.7270
vn -0.3573 0.8072 0.4699
vn 0.0756 -0.9939 0.0808
vn 0.0331 0.9487 0.3144
vn 0.4058 0.3692 0.8361
vn 0.0125 -0.7077 0.7064
vn -0.1569 -0.8014 0.5772
vn 0.0504 0.1399 0.9889
vn -0.0266 0.9582 -0.2849
vn 0.0031 -0.9990 -0.0440
vn -0.0465 -0.9748 0.2181
vn 0.3275 0.8633 -0.3841
vn 0.0914 -0.9877 0.1270
vn 0.1689 -0.9739 -0.1516
vn -0.0118 0.9338 -0.3577
vn 0.1374 -0.9905 0.0046
vn -0.1610 -0.8013 0.5762
vn -0.1056 0.9591 -0.2628
vn -0.6499 -0.6806 -0.3383
vn -0.0096 0.9346 -0.3557
vn 0.4501 -0.8422 0.2969
vn 0.4203 0.8115 -0.4060
vn 0.3707 0.9246 -0.0883
vn -0.0531 -0.9801 0.1911
vn -0.3498 -0.2556 0.9013
vn 0.3081 0.2681 0.9128
vn 0.2066 0.0223 0.9782
vn -0.6260 0.4605 0.6293
vn 0.1780 -0.9728 -0.1486
vn 0.4896 -0.1493 0.8591
vn 0.4871 -0.8728 -0.0300
vn -0.4005 -0.8365 0.3740
vn -0.0633 -0.9930 0.0995
vn 0.2275 0.9465 -0.2290
vn 0.3664 -0.4977 0.7862
vn -0.2796 0.1115 0.9536
vn 0.1634 -0.8966 0.4117
vn -0.1669 -0.9860 0.0049
vn 0.1337 -0.9907 -0.0243
vn 0.0009 -0.9985 0.0542
vn 0.4178 0.7258 0.5464
vn -0.0589 -0.9977 -0.0345
vn 0.0274 0.9959 0.0862
vn 0.2125 0.9770 -0.0199
vn -0.1633 0.6510 0.7413
vn 0.7537 0.0971 0.6500
vn -0.3855 -0.8971 0.2159
vn 0.1231 0.1778 0.9763
vn 0.2759 0.7574 0.5917
vn 0.9642 0.0895 -0.2496
vn 0.3768 -0.9020 0.2106
vn -0.0973 0.9952 -0.0050
vn -0.0845 -0.2081 0.9745
vn -0.0785 -0.2469 0.9659
vn -0.0634 0.9970 -0.0444
vn 0.2756 0.0273 0.9609
vn -0.1166 0.9764 0.1817
vn 0.1916 0.9806 -0.0409
vn -0.0716 0.9959 0.0554
vn 0.2299 0.8776 -0.4207
vn 0.4760 0.8776 -0.0566
vn -0.1304 0.9914 0.0043
vn -0.1519 0.9721 0.1789
vn -0.1374 0.9897 -0.0403
vn 0.0920 0.9877 -0.1262
vn 0.2033 0.9786 -0.0315
vn 0.1007 0.9868 -0.1266
vn -0.1645 0.9676 0.1914
vn 0.1500 0.9869 -0.0599
vn 0.2131 0.9601 -0.1813
usemtl Material
s off
f 130/1/1 84/2/1 95/3/1
f 4/4/2 65/5/2 37/6/2
f 16/7/3 18/8/3 12/9/3
f 138/10/4 26/11/4 28/12/4
f 122/13/5 5/14/5 107/15/5
f 50/16/6 21/17/6 25/18/6
f 56/19/7 95/3/7 36/20/7
f 27/21/8 47/22/8 7/23/8
f 64/24/9 14/25/9 90/26/9
f 65/5/10 67/27/10 76/28/10
f 29/29/11 135/30/11 121/31/11
f 52/32/12 44/33/12 80/34/12
f 52/32/13 41/35/13 44/33/13
f 76/28/14 27/21/14 7/23/14
f 4/4/15 66/36/15 15/37/15
f 122/13/16 26/11/16 133/38/16
f 56/19/17 130/1/17 95/3/17
f 2/39/18 49/40/18 122/13/18
f 52/32/19 43/41/19 55/42/19
f 16/7/20 115/43/20 18/8/20
f 55/42/21 98/44/21 51/45/21
f 43/41/22 36/20/22 98/44/22
f 130/1/23 56/19/23 80/34/23
f 28/12/24 86/46/24 124/47/24
f 37/6/25 45/48/25 135/30/25
f 49/40/26 28/12/26 122/13/26
f 49/40/27 2/39/27 116/49/27
f 50/16/28 72/50/28 21/17/28
f 52/32/29 16/7/29 57/51/29
f 51/45/30 140/52/30 127/53/30
f 29/29/31 46/54/31 135/30/31
f 2/39/32 132/55/32 116/49/32
f 29/29/33 121/31/33 123/56/33
f 27/21/34 18/8/34 47/22/34
f 117/57/35 116/49/35 103/58/35
f 52/32/36 57/51/36 41/35/36
f 26/11/37 122/13/37 28/12/37
f 52/32/38 55/42/38 51/45/38
f 29/29/39 123/56/39 80/34/39
f 19/59/40 24/60/40 45/48/40
f 41/35/41 15/37/41 66/36/41
f 56/19/42 36/20/42 43/41/42
f 74/61/43 131/62/43 139/63/43
f 4/4/44 67/27/44 65/5/44
f 65/5/45 76/28/45 45/48/45
f 22/64/46 81/65/46 115/43/46
f 36/20/47 95/3/47 48/66/47
f 122/13/48 107/15/48 2/39/48
f 41/35/49 66/36/49 44/33/49
f 19/59/50 76/28/50 64/24/50
f 16/7/51 22/64/51 115/43/51
f 12/9/52 57/51/52 16/7/52
f 41/35/53 57/51/53 15/37/53
f 24/60/54 19/59/54 64/24/54
f 36/20/55 13/67/55 51/45/55
f 48/66/56 139/63/56 131/62/56
f 31/68/57 15/37/57 12/9/57
f 80/34/58 68/69/58 52/32/58
f 117/57/59 103/58/59 141/70/59
f 81/65/60 22/64/60 127/53/60
f 46/54/61 44/33/61 66/36/61
f 51/45/62 98/44/62 36/20/62
f 12/9/63 18/8/63 27/21/63
f 46/54/64 29/29/64 80/34/64
f 28/12/65 124/47/65 138/10/65
f 52/32/66 22/64/66 16/7/66
f 52/32/67 127/53/67 22/64/67
f 68/69/68 43/41/68 52/32/68
f 74/61/69 109/71/69 50/16/69
f 55/42/70 43/41/70 98/44/70
f 31/68/71 4/4/71 15/37/71
f 76/28/72 19/59/72 45/48/72
f 65/5/73 45/48/73 37/6/73
f 117/57/74 108/72/74 96/73/74
f 139/63/75 48/66/75 95/3/75
f 13/67/76 140/52/76 51/45/76
f 73/74/77 34/75/77 8/76/77
f 4/4/78 37/6/78 66/36/78
f 140/52/79 13/67/79 131/62/79
f 31/68/80 40/77/80 67/27/80
f 40/77/81 31/68/81 12/9/81
f 52/32/82 51/45/82 127/53/82
f 26/11/83 138/10/83 133/38/83
f 73/74/84 14/25/84 59/78/84
f 44/33/85 46/54/85 80/34/85
f 68/69/86 80/34/86 56/19/86
f 57/51/87 12/9/87 15/37/87
f 73/74/88 3/79/88 90/26/88
f 43/41/89 68/69/89 56/19/89
f 28/12/90 49/40/90 116/49/90
f 40/77/91 27/21/91 67/27/91
f 4/4/92 31/68/92 67/27/92
f 27/21/93 40/77/93 12/9/93
f 13/67/94 36/20/94 131/62/94
f 37/6/95 46/54/95 66/36/95
f 36/20/96 48/66/96 131/62/96
f 28/12/97 116/49/97 86/46/97
f 46/54/98 37/6/98 135/30/98
f 129/80/99 111/81/99 109/71/99
f 72/50/100 112/82/100 125/83/100
f 75/84/101 128/85/101 70/86/101
f 129/80/102 137/87/102 120/88/102
f 72/50/103 71/89/103 62/90/103
f 11/91/104 82/92/104 85/93/104
f 35/94/105 3/79/105 54/95/105
f 129/80/106 109/71/106 74/61/106
f 30/96/107 63/97/107 69/98/107
f 103/58/108 102/99/108 119/100/108
f 50/16/109 140/52/109 131/62/109
f 118/101/110 109/71/110 114/102/110
f 61/103/111 83/104/111 92/105/111
f 132/55/112 2/39/112 102/99/112
f 124/47/113 104/106/113 87/107/113
f 21/17/114 81/65/114 25/18/114
f 8/76/115 54/95/115 3/79/115
f 118/101/116 136/108/116 96/73/116
f 32/109/117 9/110/117 93/111/117
f 18/8/118 115/43/118 63/97/118
f 135/30/119 45/48/119 24/60/119
f 1/112/120 11/91/120 39/113/120
f 71/89/121 141/70/121 106/114/121
f 30/96/122 14/25/122 7/23/122
f 20/115/123 122/13/123 133/38/123
f 34/75/124 89/116/124 23/117/124
f 70/86/125 79/118/125 121/31/125
f 73/74/126 90/26/126 14/25/126
f 116/49/127 132/55/127 102/99/127
f 72/50/128 125/83/128 81/65/128
f 24/60/129 75/84/129 70/86/129
f 117/57/130 141/70/130 108/72/130
f 118/101/131 114/102/131 136/108/131
f 33/119/132 42/120/132 54/95/132
f 20/115/133 78/121/133 5/14/133
f 67/27/134 27/21/134 76/28/134
f 8/76/135 23/117/135 58/122/135
f 61/103/136 105/123/136 17/124/136
f 6/125/137 60/126/137 125/83/137
f 8/76/138 33/119/138 54/95/138
f 9/110/139 119/100/139 93/111/139
f 42/120/140 33/119/140 58/122/140
f 18/8/141 63/97/141 47/22/141
f 72/50/142 62/90/142 112/82/142
f 58/122/143 23/117/143 89/116/143
f 64/24/144 7/23/144 14/25/144
f 91/127/145 97/128/145 5/14/145
f 127/53/146 25/18/146 81/65/146
f 126/129/147 108/72/147 141/70/147
f 5/14/148 97/128/148 107/15/148
f 113/130/149 96/73/149 136/108/149
f 38/131/150 90/26/150 3/79/150
f 78/121/151 20/115/151 128/85/151
f 34/75/152 23/117/152 8/76/152
f 123/56/153 138/10/153 77/132/153
f 87/107/154 113/130/154 120/88/154
f 82/92/155 125/83/155 112/82/155
f 73/74/156 59/78/156 34/75/156
f 35/94/157 78/121/157 128/85/157
f 129/80/158 120/88/158 111/81/158
f 3/79/159 73/74/159 8/76/159
f 83/104/160 99/133/160 92/105/160
f 11/91/161 89/116/161 39/113/161
f 119/100/162 9/110/162 62/90/162
f 90/26/163 38/131/163 64/24/163
f 6/125/164 1/112/164 63/97/164
f 78/121/165 35/94/165 54/95/165
f 115/43/166 60/126/166 63/97/166
f 17/124/167 105/123/167 91/127/167
f 38/131/168 24/60/168 64/24/168
f 39/113/169 53/134/169 1/112/169
f 119/100/170 62/90/170 106/114/170
f 122/13/171 20/115/171 5/14/171
f 7/23/172 47/22/172 30/96/172
f 76/28/173 7/23/173 64/24/173
f 1/112/174 69/98/174 63/97/174
f 50/16/175 109/71/175 126/129/175
f 129/80/176 74/61/176 139/63/176
f 25/18/177 127/53/177 140/52/177
f 34/75/178 53/134/178 39/113/178
f 104/106/179 86/46/179 117/57/179
f 82/92/180 112/82/180 32/109/180
f 70/86/181 121/31/181 135/30/181
f 20/115/182 133/38/182 79/118/182
f 112/82/183 62/90/183 32/109/183
f 10/135/184 17/124/184 42/120/184
f 128/85/185 75/84/185 38/131/185
f 123/56/186 121/31/186 138/10/186
f 53/134/187 30/96/187 1/112/187
f 11/91/188 85/93/188 88/136/188
f 116/49/189 117/57/189 86/46/189
f 75/84/190 24/60/190 38/131/190
f 2/39/191 107/15/191 102/99/191
f 83/104/192 61/103/192 88/136/192
f 10/135/193 89/116/193 88/136/193
f 10/135/194 61/103/194 17/124/194
f 30/96/195 69/98/195 1/112/195
f 81/65/196 21/17/196 72/50/196
f 113/130/197 87/107/197 104/106/197
f 47/22/198 63/97/198 30/96/198
f 58/122/199 89/116/199 10/135/199
f 32/109/200 99/133/200 85/93/200
f 10/135/201 88/136/201 61/103/201
f 105/123/202 101/137/202 110/138/202
f 74/61/203 50/16/203 131/62/203
f 32/109/204 93/111/204 99/133/204
f 124/47/205 77/132/205 138/10/205
f 60/126/206 6/125/206 63/97/206
f 99/133/207 83/104/207 85/93/207
f 60/126/208 115/43/208 125/83/208
f 1/112/209 6/125/209 11/91/209
f 54/95/210 42/120/210 91/127/210
f 126/129/211 71/89/211 72/50/211
f 113/130/212 136/108/212 120/88/212
f 105/123/213 92/105/213 101/137/213
f 6/125/214 82/92/214 11/91/214
f 91/127/215 110/138/215 97/128/215
f 93/111/216 100/139/216 99/133/216
f 3/79/217 35/94/217 128/85/217
f 126/129/218 141/70/218 71/89/218
f 9/110/219 32/109/219 62/90/219
f 117/57/220 96/73/220 104/106/220
f 25/18/221 140/52/221 50/16/221
f 136/108/222 114/102/222 111/81/222
f 91/127/223 5/14/223 78/121/223
f 34/75/224 39/113/224 89/116/224
f 97/128/225 110/138/225 107/15/225
f 70/86/226 128/85/226 79/118/226
f 59/78/227 14/25/227 30/96/227
f 38/131/228 3/79/228 128/85/228
f 6/125/229 125/83/229 82/92/229
f 54/95/230 91/127/230 78/121/230
f 104/106/231 124/47/231 86/46/231
f 118/101/232 96/73/232 108/72/232
f 100/139/233 107/15/233 110/138/233
f 119/100/234 100/139/234 93/111/234
f 103/58/235 116/49/235 102/99/235
f 33/119/236 8/76/236 58/122/236
f 114/102/237 109/71/237 111/81/237
f 119/100/238 106/114/238 141/70/238
f 118/101/239 126/129/239 109/71/239
f 59/78/240 30/96/240 53/134/240
f 11/91/241 88/136/241 89/116/241
f 24/60/242 70/86/242 135/30/242
f 103/58/243 119/100/243 141/70/243
f 58/122/244 10/135/244 42/120/244
f 126/129/245 118/101/245 108/72/245
f 88/136/246 85/93/246 83/104/246
f 50/16/247 126/129/247 72/50/247
f 82/92/248 32/109/248 85/93/248
f 101/137/249 100/139/249 110/138/249
f 71/89/250 106/114/250 62/90/250
f 20/115/251 79/118/251 128/85/251
f 113/130/252 104/106/252 96/73/252
f 42/120/253 17/124/253 91/127/253
f 92/105/254 99/133/254 101/137/254
f 34/75/255 59/78/255 53/134/255
f 61/103/256 92/105/256 105/123/256
f 91/127/257 105/123/257 110/138/257
f 136/108/258 111/81/258 120/88/258
f 125/83/259 115/43/259 81/65/259
f 95/140/260 129/141/260 139/142/260
f 102/99/261 107/15/261 100/139/261
f 102/99/262 100/139/262 119/100/262
f 130/143/263 94/144/263 84/145/263
f 100/139/264 101/137/264 99/133/264
f 134/146/265 87/147/265 94/144/265
f 124/148/266 87/147/266 134/146/266
f 77/149/267 134/146/267 123/150/267
f 84/145/268 137/151/268 129/141/268
f 79/152/269 133/153/269 121/154/269
f 77/149/270 124/148/270 134/146/270
f 94/144/271 120/155/271 137/151/271
f 94/144/272 137/151/272 84/145/272
f 134/146/273 94/144/273 130/143/273
f 121/154/274 133/153/274 138/156/274
f 123/150/275 134/146/275 130/143/275
f 87/147/276 120/155/276 94/144/276
f 123/150/277 130/143/277 80/157/277
f 84/145/278 129/141/278 95/140/278
